# xmcd
#
# Track frame offsets:
#	150
#	24137
#	48710
#
# Disc length: 967 seconds
#
# Revision: 1
# Processed by: cddbd v1.5.1PL0 Copyright (c) Steve Scherf et al.
# Submitted via: CDex 1.50Beta5
#
DISCID=1b03c503
DTITLE=sex MACHINEGUNS - Tekken ?
DYEAR=1999
DGENRE=Rock
TTITLE0=Tekken ?
TTITLE1=桜島・Noisy Special Version・
TTITLE2=Tekken ?・Anchangと"勝負じゃこりゃー"Version・
EXTD=
EXTT0=
EXTT1=
EXTT2=
PLAYORDER=
